<svg data-v-423bf9ae="" xmlns="http://www.w3.org/2000/svg" viewBox="0 0 660 90" class="iconLeft"><!----><!----><!----><g data-v-423bf9ae="" id="bec06e7b-9301-45ec-89d2-2aea8e9e7d9c" fill="white" transform="matrix(5.830903811703725,0,0,5.830903811703725,104.12684728507003,2.3469397142517323)"><path d="M0.99 12.29L0.99 2.69L3.75 2.69L5.42 8.41Q5.53 8.79 5.68 9.46Q5.82 10.12 5.87 10.33L5.87 10.33L5.94 10.33Q5.98 10.11 6.10 9.43Q6.23 8.75 6.33 8.41L6.33 8.41L8.01 2.69L10.67 2.69L10.67 12.29L8.88 12.29L8.88 6.09Q8.88 5.68 8.90 5.17Q8.93 4.66 8.95 4.47L8.95 4.47L8.86 4.47Q8.75 4.94 8.58 5.53L8.58 5.53L6.61 12.29L4.96 12.29L3.00 5.53Q2.90 5.21 2.80 4.80L2.80 4.80L2.72 4.47L2.65 4.47Q2.66 4.66 2.68 5.17Q2.70 5.67 2.70 6.09L2.70 6.09L2.70 12.29L0.99 12.29ZM15.60 12.46Q13.86 12.46 13.02 11.52Q12.18 10.58 12.18 8.61L12.18 8.61Q12.18 6.64 13.03 5.70Q13.87 4.76 15.60 4.76L15.60 4.76Q17.09 4.76 17.91 5.50Q18.72 6.24 18.72 7.69L18.72 7.69L17.01 7.69Q17.01 6.90 16.66 6.51Q16.31 6.12 15.57 6.12L15.57 6.12Q14.70 6.12 14.29 6.71Q13.89 7.31 13.89 8.54L13.89 8.54L13.89 8.71Q13.89 9.94 14.30 10.52Q14.71 11.10 15.64 11.10L15.64 11.10Q16.35 11.10 16.72 10.70Q17.09 10.29 17.09 9.53L17.09 9.53L18.72 9.53Q18.72 10.92 17.90 11.69Q17.08 12.46 15.60 12.46L15.60 12.46ZM20.17 12.29L20.17 2.69L21.88 2.69L26.05 8.41Q26.22 8.67 26.35 8.88Q26.47 9.10 26.53 9.18L26.53 9.18L26.60 9.16L26.57 8.40L26.57 2.69L28.29 2.69L28.29 12.29L26.61 12.29L22.41 6.51Q22.26 6.30 22.12 6.04Q21.98 5.78 21.94 5.73L21.94 5.73L21.87 5.77Q21.87 5.84 21.88 6.05Q21.90 6.26 21.90 6.54L21.90 6.54L21.90 12.29L20.17 12.29ZM33.33 12.46Q31.54 12.46 30.67 11.52Q29.81 10.58 29.81 8.61L29.81 8.61Q29.81 6.64 30.68 5.70Q31.56 4.76 33.33 4.76L33.33 4.76Q34.96 4.76 35.76 5.67Q36.57 6.58 36.57 8.51L36.57 8.51L36.57 9.02L31.51 9.02Q31.56 10.11 31.98 10.62Q32.41 11.13 33.35 11.13L33.35 11.13Q34.05 11.13 34.48 10.77Q34.92 10.42 34.92 9.72L34.92 9.72L36.57 9.72Q36.57 11.07 35.67 11.77Q34.78 12.46 33.33 12.46L33.33 12.46ZM31.54 7.83L34.82 7.83Q34.82 6.09 33.33 6.09L33.33 6.09Q32.49 6.09 32.07 6.52Q31.64 6.94 31.54 7.83L31.54 7.83ZM41.12 12.46Q39.33 12.46 38.46 11.52Q37.59 10.58 37.59 8.61L37.59 8.61Q37.59 6.64 38.47 5.70Q39.34 4.76 41.12 4.76L41.12 4.76Q42.74 4.76 43.55 5.67Q44.35 6.58 44.35 8.51L44.35 8.51L44.35 9.02L39.30 9.02Q39.34 10.11 39.77 10.62Q40.19 11.13 41.13 11.13L41.13 11.13Q41.83 11.13 42.27 10.77Q42.70 10.42 42.70 9.72L42.70 9.72L44.35 9.72Q44.35 11.07 43.46 11.77Q42.56 12.46 41.12 12.46L41.12 12.46ZM39.33 7.83L42.60 7.83Q42.60 6.09 41.12 6.09L41.12 6.09Q40.28 6.09 39.85 6.52Q39.42 6.94 39.33 7.83L39.33 7.83ZM48.62 12.46Q47.10 12.46 46.26 11.83Q45.43 11.20 45.43 10.19L45.43 10.19Q45.43 10.07 45.44 10.02Q45.44 9.98 45.44 9.97L45.44 9.97L47.08 9.97L47.08 10.08Q47.10 10.63 47.55 10.88Q48.01 11.14 48.69 11.14L48.69 11.14Q49.31 11.14 49.74 10.94Q50.18 10.74 50.18 10.33L50.18 10.33Q50.18 10.01 49.94 9.81Q49.70 9.60 49.35 9.48Q49 9.37 48.36 9.21L48.36 9.21Q47.49 9.00 46.94 8.79Q46.38 8.58 45.99 8.13Q45.60 7.69 45.60 6.96L45.60 6.96Q45.60 5.91 46.47 5.33Q47.33 4.76 48.72 4.76L48.72 4.76Q49.57 4.76 50.25 5.01Q50.92 5.26 51.29 5.72Q51.66 6.17 51.66 6.76L51.66 6.76L51.65 7.07L50.01 7.07L50.01 7.01Q50.01 6.58 49.65 6.33Q49.29 6.09 48.62 6.09L48.62 6.09Q47.96 6.09 47.63 6.29Q47.29 6.50 47.29 6.82L47.29 6.82Q47.29 7.21 47.70 7.40Q48.12 7.59 48.97 7.77L48.97 7.77Q49.90 7.98 50.46 8.20Q51.03 8.41 51.45 8.88Q51.87 9.34 51.87 10.12L51.87 10.12Q51.87 11.34 51.00 11.90Q50.12 12.46 48.62 12.46L48.62 12.46ZM57.26 12.29L57.26 2.69L60.02 2.69L61.68 8.41Q61.80 8.79 61.94 9.46Q62.09 10.12 62.13 10.33L62.13 10.33L62.20 10.33Q62.24 10.11 62.37 9.43Q62.50 8.75 62.59 8.41L62.59 8.41L64.27 2.69L66.93 2.69L66.93 12.29L65.14 12.29L65.14 6.09Q65.14 5.68 65.17 5.17Q65.20 4.66 65.21 4.47L65.21 4.47L65.13 4.47Q65.02 4.94 64.85 5.53L64.85 5.53L62.87 12.29L61.22 12.29L59.26 5.53Q59.16 5.21 59.07 4.80L59.07 4.80L58.98 4.47L58.91 4.47Q58.93 4.66 58.95 5.17Q58.97 5.67 58.97 6.09L58.97 6.09L58.97 12.29L57.26 12.29ZM71.97 12.46Q70.18 12.46 69.31 11.52Q68.45 10.58 68.45 8.61L68.45 8.61Q68.45 6.64 69.32 5.70Q70.20 4.76 71.97 4.76L71.97 4.76Q73.60 4.76 74.40 5.67Q75.21 6.58 75.21 8.51L75.21 8.51L75.21 9.02L70.15 9.02Q70.20 10.11 70.62 10.62Q71.05 11.13 71.99 11.13L71.99 11.13Q72.69 11.13 73.12 10.77Q73.56 10.42 73.56 9.72L73.56 9.72L75.21 9.72Q75.21 11.07 74.31 11.77Q73.42 12.46 71.97 12.46L71.97 12.46ZM70.18 7.83L73.46 7.83Q73.46 6.09 71.97 6.09L71.97 6.09Q71.13 6.09 70.71 6.52Q70.28 6.94 70.18 7.83L70.18 7.83ZM79.16 12.46Q77.76 12.46 76.99 11.51Q76.22 10.56 76.22 8.60L76.22 8.60Q76.22 6.69 76.99 5.73Q77.76 4.76 79.04 4.76L79.04 4.76Q80.58 4.76 81.26 5.78L81.26 5.78L81.34 5.78L81.34 2.17L83.02 2.17L83.02 12.29L81.63 12.29L81.49 11.31L81.41 11.31Q81.05 11.87 80.46 12.17Q79.87 12.46 79.16 12.46L79.16 12.46ZM79.66 11.02Q80.53 11.02 80.93 10.44Q81.34 9.86 81.34 8.71L81.34 8.71L81.34 8.54Q81.34 6.20 79.66 6.20L79.66 6.20Q78.74 6.20 78.34 6.75Q77.95 7.31 77.95 8.53L77.95 8.53L77.95 8.71Q77.95 9.91 78.34 10.46Q78.74 11.02 79.66 11.02L79.66 11.02ZM84.98 3.78L84.98 2.17L86.66 2.17L86.66 3.78L84.98 3.78ZM84.98 12.29L84.98 4.93L86.66 4.93L86.66 12.29L84.98 12.29ZM90.40 12.46Q89.50 12.46 88.78 12.02Q88.06 11.58 88.06 10.39L88.06 10.39Q88.06 8.97 89.26 8.40Q90.47 7.83 92.68 7.83L92.68 7.83L92.68 7.21Q92.68 6.68 92.41 6.38Q92.13 6.09 91.42 6.09L91.42 6.09Q90.68 6.09 90.37 6.33Q90.06 6.57 90.06 6.92L90.06 6.92L90.06 7.11L88.44 7.11Q88.42 7.03 88.42 6.80L88.42 6.80Q88.42 5.85 89.24 5.31Q90.06 4.76 91.42 4.76L91.42 4.76Q92.89 4.76 93.63 5.36Q94.36 5.96 94.36 7.08L94.36 7.08L94.36 10.60Q94.36 10.85 94.50 10.97Q94.64 11.09 94.85 11.09L94.85 11.09L95.30 11.09L95.30 12.24Q94.85 12.45 94.25 12.45L94.25 12.45Q93.70 12.45 93.34 12.18Q92.97 11.91 92.85 11.45L92.85 11.45L92.75 11.45Q91.92 12.46 90.40 12.46L90.40 12.46ZM90.90 11.12Q91.73 11.12 92.20 10.64Q92.68 10.16 92.68 9.35L92.68 9.35L92.68 9.02Q91.32 9.02 90.55 9.28Q89.78 9.53 89.78 10.22L89.78 10.22Q89.78 11.12 90.90 11.12L90.90 11.12Z"></path></g><!----><g data-v-423bf9ae="" id="cc8d4415-2e85-49b1-8c20-c6c9ba9c525a" transform="matrix(1.005586592178771,0,0,1.005586592178771,-1.965643216777785,-5.0293296089385535)" stroke="none" fill="white"><path d="M30.8 43.6l10.3-10.3c5.5 2.6 12.2 1.8 16.7-2.8 5.8-5.8 5.8-15.1 0-20.9-5.8-5.8-15.1-5.8-20.9 0-4.5 4.5-5.4 11.2-2.8 16.7L23.9 36.6c-5.5-2.6-12.2-1.8-16.7 2.8-5.8 5.8-5.8 15.1 0 20.9 5.8 5.8 15.1 5.8 20.9 0 4.5-4.5 5.3-11.2 2.7-16.7zm-9.7 9.7c-1.9 1.9-5 1.9-7 0-1.9-1.9-1.9-5 0-7 1.9-1.9 5-1.9 7 0 1.9 2 1.9 5.1 0 7zM66.9 39.7c-4.5 4.5-5.4 11.2-2.8 16.7L53.9 66.7c-5.5-2.6-12.2-1.8-16.7 2.8-5.8 5.8-5.8 15.1 0 20.9 5.8 5.8 15.1 5.8 20.9 0 4.5-4.5 5.4-11.2 2.8-16.7l10.3-10.3c5.5 2.6 12.2 1.8 16.7-2.8 5.8-5.8 5.8-15.1 0-20.9-5.8-5.8-15.2-5.8-21 0zm14 13.9c-1.9 1.9-5 1.9-7 0-1.9-1.9-1.9-5 0-7 1.9-1.9 5-1.9 7 0 1.9 2 1.9 5.1 0 7z"></path></g><!----></svg>